<svg xmlns="http://www.w3.org/2000/svg" viewBox="0 0 900 1200" fill="none">
  <defs>
    <filter id="blurHeavy" x="-30%" y="-30%" width="160%" height="160%">
      <feGaussianBlur stdDeviation="90" />
    </filter>
    <filter id="blurSoft" x="-20%" y="-20%" width="140%" height="140%">
      <feGaussianBlur stdDeviation="35" />
    </filter>
    <linearGradient id="panelWash" x1="0" y1="0" x2="0" y2="1200">
      <stop offset="0%" stop-color="#f3e4cb" />
      <stop offset="42%" stop-color="#e5c289" stop-opacity="0.78" />
      <stop offset="100%" stop-color="#f3e4cb" />
    </linearGradient>
  </defs>
  <rect width="900" height="1200" fill="url(#panelWash)" />
  <rect width="900" height="1200" fill="#ffffff" opacity="0.08" />
  <ellipse cx="216" cy="170" rx="290" ry="190" fill="#e5c289" opacity="0.52" filter="url(#blurHeavy)" />
  <ellipse cx="699" cy="870" rx="250" ry="225" fill="#e3b366" opacity="0.224" filter="url(#blurHeavy)" />
  <ellipse cx="206" cy="1040" rx="250" ry="150" fill="#f9e8be" opacity="0.288" filter="url(#blurSoft)" />
  <ellipse cx="684" cy="206" rx="175" ry="165" fill="#f9e8be" opacity="0.48" filter="url(#blurSoft)" />
  <path d="M149 1085 L424 560 L774 1085" fill="none" stroke="#e3b366" stroke-width="18" stroke-linecap="round" stroke-linejoin="round" opacity="0.256" />
  <path d="M184 980 L394 710 L624 980" fill="none" stroke="#634c2b" stroke-width="14" stroke-linecap="round" stroke-linejoin="round" opacity="0.224" />
  <path d="M60 942 C250 857 470 1032 690 957 C800 919 860 952 920 1002" fill="none" stroke="#edca8e" stroke-width="22" stroke-linecap="round" stroke-linejoin="round" opacity="0.256" />
  <path d="M110 1012 C330 917 540 1082 790 1007" fill="none" stroke="#e3b366" stroke-width="14" stroke-linecap="round" stroke-linejoin="round" opacity="0.192" />
</svg>
