<svg xmlns="http://www.w3.org/2000/svg" viewBox="0 0 900 1200" fill="none">
  <defs>
    <filter id="blurHeavy" x="-30%" y="-30%" width="160%" height="160%">
      <feGaussianBlur stdDeviation="90" />
    </filter>
    <filter id="blurSoft" x="-20%" y="-20%" width="140%" height="140%">
      <feGaussianBlur stdDeviation="35" />
    </filter>
    <linearGradient id="panelWash" x1="0" y1="0" x2="0" y2="1200">
      <stop offset="0%" stop-color="#efe5cd" />
      <stop offset="42%" stop-color="#d9c58f" stop-opacity="0.78" />
      <stop offset="100%" stop-color="#efe5cd" />
    </linearGradient>
  </defs>
  <rect width="900" height="1200" fill="url(#panelWash)" />
  <rect width="900" height="1200" fill="#ffffff" opacity="0.08" />
  <ellipse cx="215" cy="170" rx="290" ry="190" fill="#d9c58f" opacity="0.52" filter="url(#blurHeavy)" />
  <ellipse cx="710" cy="870" rx="250" ry="225" fill="#cab872" opacity="0.224" filter="url(#blurHeavy)" />
  <ellipse cx="185" cy="1040" rx="250" ry="150" fill="#f3e9c0" opacity="0.288" filter="url(#blurSoft)" />
  <path d="M98 1150 C238 930 318 700 403 349" fill="none" stroke="#5c4d2f" stroke-width="14" stroke-linecap="round" stroke-linejoin="round" opacity="0.352" />
  <path d="M203 1145 C348 920 468 710 583 259" fill="none" stroke="#cab872" stroke-width="18" stroke-linecap="round" stroke-linejoin="round" opacity="0.32" />
  <path d="M348 1185 C508 930 648 700 758 224" fill="none" stroke="#5c4d2f" stroke-width="12" stroke-linecap="round" stroke-linejoin="round" opacity="0.288" />
  <ellipse cx="638" cy="239" rx="130" ry="120" fill="#f3e9c0" opacity="0.52" filter="url(#blurSoft)" />
  <path d="M60 950 C250 865 470 1040 690 965 C800 927 860 960 920 1010" fill="none" stroke="#ddcd95" stroke-width="22" stroke-linecap="round" stroke-linejoin="round" opacity="0.256" />
  <path d="M110 1020 C330 925 540 1090 790 1015" fill="none" stroke="#cab872" stroke-width="14" stroke-linecap="round" stroke-linejoin="round" opacity="0.192" />
</svg>
