<svg xmlns="http://www.w3.org/2000/svg" viewBox="0 0 900 1200" fill="none">
  <defs>
    <filter id="blurHeavy" x="-30%" y="-30%" width="160%" height="160%">
      <feGaussianBlur stdDeviation="90" />
    </filter>
    <filter id="blurSoft" x="-20%" y="-20%" width="140%" height="140%">
      <feGaussianBlur stdDeviation="35" />
    </filter>
    <linearGradient id="panelWash" x1="0" y1="0" x2="0" y2="1200">
      <stop offset="0%" stop-color="#f2e7cd" />
      <stop offset="42%" stop-color="#e2ca8f" stop-opacity="0.78" />
      <stop offset="100%" stop-color="#f2e7cd" />
    </linearGradient>
  </defs>
  <rect width="900" height="1200" fill="url(#panelWash)" />
  <rect width="900" height="1200" fill="#ffffff" opacity="0.08" />
  <ellipse cx="240" cy="170" rx="290" ry="190" fill="#e2ca8f" opacity="0.52" filter="url(#blurHeavy)" />
  <ellipse cx="715" cy="870" rx="250" ry="225" fill="#dcc371" opacity="0.224" filter="url(#blurHeavy)" />
  <ellipse cx="180" cy="1040" rx="250" ry="150" fill="#f7ebc0" opacity="0.288" filter="url(#blurSoft)" />
  <ellipse cx="663" cy="238" rx="76" ry="190" fill="#f7ebc0" opacity="0.352" transform="rotate(0 663 238)" />
  <ellipse cx="663" cy="238" rx="76" ry="190" fill="#f7ebc0" opacity="0.352" transform="rotate(45 663 238)" />
  <ellipse cx="663" cy="238" rx="76" ry="190" fill="#f7ebc0" opacity="0.352" transform="rotate(90 663 238)" />
  <ellipse cx="663" cy="238" rx="76" ry="190" fill="#f7ebc0" opacity="0.352" transform="rotate(135 663 238)" />
  <circle cx="663" cy="238" r="58" fill="#fff6cf" opacity="0.52" />
  <path d="M60 964 C250 879 470 1054 690 979 C800 941 860 974 920 1024" fill="none" stroke="#e8d495" stroke-width="22" stroke-linecap="round" stroke-linejoin="round" opacity="0.256" />
  <path d="M110 1034 C330 939 540 1104 790 1029" fill="none" stroke="#dcc371" stroke-width="14" stroke-linecap="round" stroke-linejoin="round" opacity="0.192" />
</svg>
