<svg xmlns="http://www.w3.org/2000/svg" viewBox="0 0 900 1200" fill="none">
  <defs>
    <filter id="blurHeavy" x="-30%" y="-30%" width="160%" height="160%">
      <feGaussianBlur stdDeviation="90" />
    </filter>
    <filter id="blurSoft" x="-20%" y="-20%" width="140%" height="140%">
      <feGaussianBlur stdDeviation="35" />
    </filter>
    <linearGradient id="panelWash" x1="0" y1="0" x2="0" y2="1200">
      <stop offset="0%" stop-color="#e6e1dd" />
      <stop offset="42%" stop-color="#c0b9bf" stop-opacity="0.78" />
      <stop offset="100%" stop-color="#e6e1dd" />
    </linearGradient>
  </defs>
  <rect width="900" height="1200" fill="url(#panelWash)" />
  <rect width="900" height="1200" fill="#ffffff" opacity="0.08" />
  <ellipse cx="213" cy="170" rx="290" ry="190" fill="#c0b9bf" opacity="0.52" filter="url(#blurHeavy)" />
  <ellipse cx="697" cy="870" rx="250" ry="225" fill="#9aa0ce" opacity="0.224" filter="url(#blurHeavy)" />
  <ellipse cx="193" cy="1040" rx="250" ry="150" fill="#e9e4d5" opacity="0.288" filter="url(#blurSoft)" />
  <circle cx="641" cy="216" r="120" fill="#e9e4d5" opacity="0.52" filter="url(#blurSoft)" />
  <circle cx="621" cy="216" r="92" fill="#f7f4ff" opacity="0.52" />
  <circle cx="661" cy="196" r="82" fill="#e6e1dd" opacity="0.52" />
  <path d="M80 1000 C260 900 520 900 801 990" fill="none" stroke="#9aa0ce" stroke-width="14" stroke-linecap="round" stroke-linejoin="round" opacity="0.192" />
  <path d="M60 933 C250 848 470 1023 690 948 C800 910 860 943 920 993" fill="none" stroke="#bebdd1" stroke-width="22" stroke-linecap="round" stroke-linejoin="round" opacity="0.256" />
  <path d="M110 1003 C330 908 540 1073 790 998" fill="none" stroke="#9aa0ce" stroke-width="14" stroke-linecap="round" stroke-linejoin="round" opacity="0.192" />
</svg>
