<svg xmlns="http://www.w3.org/2000/svg" viewBox="0 0 900 1200" fill="none">
  <defs>
    <filter id="blurHeavy" x="-30%" y="-30%" width="160%" height="160%">
      <feGaussianBlur stdDeviation="90" />
    </filter>
    <filter id="blurSoft" x="-20%" y="-20%" width="140%" height="140%">
      <feGaussianBlur stdDeviation="35" />
    </filter>
    <linearGradient id="panelWash" x1="0" y1="0" x2="0" y2="1200">
      <stop offset="0%" stop-color="#e5e3d9" />
      <stop offset="42%" stop-color="#bcc0b3" stop-opacity="0.78" />
      <stop offset="100%" stop-color="#e5e3d9" />
    </linearGradient>
  </defs>
  <rect width="900" height="1200" fill="url(#panelWash)" />
  <rect width="900" height="1200" fill="#ffffff" opacity="0.08" />
  <ellipse cx="236" cy="170" rx="290" ry="190" fill="#bcc0b3" opacity="0.52" filter="url(#blurHeavy)" />
  <ellipse cx="689" cy="870" rx="250" ry="225" fill="#93b0b8" opacity="0.224" filter="url(#blurHeavy)" />
  <ellipse cx="176" cy="1040" rx="250" ry="150" fill="#e7e7d0" opacity="0.288" filter="url(#blurSoft)" />
  <ellipse cx="654" cy="242" rx="250" ry="120" fill="#e7e7d0" opacity="0.48" filter="url(#blurSoft)" />
  <ellipse cx="304" cy="950" rx="330" ry="130" fill="#93b0b8" opacity="0.192" filter="url(#blurSoft)" />
  <path d="M80 980 C240 900 530 900 820 1000" fill="none" stroke="#4b4b45" stroke-width="12" stroke-linecap="round" stroke-linejoin="round" opacity="0.16" />
  <path d="M60 940 C250 855 470 1030 690 955 C800 917 860 950 920 1000" fill="none" stroke="#b9c7c2" stroke-width="22" stroke-linecap="round" stroke-linejoin="round" opacity="0.256" />
  <path d="M110 1010 C330 915 540 1080 790 1005" fill="none" stroke="#93b0b8" stroke-width="14" stroke-linecap="round" stroke-linejoin="round" opacity="0.192" />
</svg>
