<svg xmlns="http://www.w3.org/2000/svg" viewBox="0 0 900 1200" fill="none">
  <defs>
    <filter id="blurHeavy" x="-30%" y="-30%" width="160%" height="160%">
      <feGaussianBlur stdDeviation="90" />
    </filter>
    <filter id="blurSoft" x="-20%" y="-20%" width="140%" height="140%">
      <feGaussianBlur stdDeviation="35" />
    </filter>
    <linearGradient id="panelWash" x1="0" y1="0" x2="0" y2="1200">
      <stop offset="0%" stop-color="#f0dfd5" />
      <stop offset="42%" stop-color="#dbb4a8" stop-opacity="0.78" />
      <stop offset="100%" stop-color="#f0dfd5" />
    </linearGradient>
  </defs>
  <rect width="900" height="1200" fill="url(#panelWash)" />
  <rect width="900" height="1200" fill="#ffffff" opacity="0.08" />
  <ellipse cx="218" cy="170" rx="290" ry="190" fill="#dbb4a8" opacity="0.52" filter="url(#blurHeavy)" />
  <ellipse cx="717" cy="870" rx="250" ry="225" fill="#ce97a1" opacity="0.224" filter="url(#blurHeavy)" />
  <ellipse cx="178" cy="1040" rx="250" ry="150" fill="#f4e1cb" opacity="0.288" filter="url(#blurSoft)" />
  <ellipse cx="631" cy="263" rx="130" ry="88" fill="#f4e1cb" opacity="0.352" filter="url(#blurSoft)" />
  <path d="M585 338 C645 208 730 208 780 328" fill="none" stroke="#5d433e" stroke-width="12" stroke-linecap="round" stroke-linejoin="round" opacity="0.256" />
  <path d="M560 383 C655 268 760 278 805 393" fill="none" stroke="#ce97a1" stroke-width="10" stroke-linecap="round" stroke-linejoin="round" opacity="0.224" />
  <path d="M60 971 C250 886 470 1061 690 986 C800 948 860 981 920 1031" fill="none" stroke="#e0b7b4" stroke-width="22" stroke-linecap="round" stroke-linejoin="round" opacity="0.256" />
  <path d="M110 1041 C330 946 540 1111 790 1036" fill="none" stroke="#ce97a1" stroke-width="14" stroke-linecap="round" stroke-linejoin="round" opacity="0.192" />
</svg>
