<svg xmlns="http://www.w3.org/2000/svg" viewBox="0 0 900 1200" fill="none">
  <defs>
    <filter id="blurHeavy" x="-30%" y="-30%" width="160%" height="160%">
      <feGaussianBlur stdDeviation="90" />
    </filter>
    <filter id="blurSoft" x="-20%" y="-20%" width="140%" height="140%">
      <feGaussianBlur stdDeviation="35" />
    </filter>
    <linearGradient id="panelWash" x1="0" y1="0" x2="0" y2="1200">
      <stop offset="0%" stop-color="#eddfdb" />
      <stop offset="42%" stop-color="#d3b5b9" stop-opacity="0.78" />
      <stop offset="100%" stop-color="#eddfdb" />
    </linearGradient>
  </defs>
  <rect width="900" height="1200" fill="url(#panelWash)" />
  <rect width="900" height="1200" fill="#ffffff" opacity="0.08" />
  <ellipse cx="223" cy="170" rx="290" ry="190" fill="#d3b5b9" opacity="0.52" filter="url(#blurHeavy)" />
  <ellipse cx="712" cy="870" rx="250" ry="225" fill="#be99c3" opacity="0.224" filter="url(#blurHeavy)" />
  <ellipse cx="203" cy="1040" rx="250" ry="150" fill="#f1e2d2" opacity="0.288" filter="url(#blurSoft)" />
  <ellipse cx="631" cy="249" rx="108" ry="192" fill="#f1e2d2" opacity="0.352" transform="rotate(-28 631 249)" />
  <ellipse cx="706" cy="309" rx="90" ry="170" fill="#be99c3" opacity="0.256" transform="rotate(18 706 309)" />
  <ellipse cx="546" cy="344" rx="110" ry="165" fill="#fff5ef" opacity="0.288" transform="rotate(25 546 344)" />
  <path d="M60 966 C250 881 470 1056 690 981 C800 943 860 976 920 1026" fill="none" stroke="#d5b9c9" stroke-width="22" stroke-linecap="round" stroke-linejoin="round" opacity="0.256" />
  <path d="M110 1036 C330 941 540 1106 790 1031" fill="none" stroke="#be99c3" stroke-width="14" stroke-linecap="round" stroke-linejoin="round" opacity="0.192" />
</svg>
