<svg xmlns="http://www.w3.org/2000/svg" viewBox="0 0 900 1200" fill="none">
  <defs>
    <filter id="blurHeavy" x="-30%" y="-30%" width="160%" height="160%">
      <feGaussianBlur stdDeviation="90" />
    </filter>
    <filter id="blurSoft" x="-20%" y="-20%" width="140%" height="140%">
      <feGaussianBlur stdDeviation="35" />
    </filter>
    <linearGradient id="panelWash" x1="0" y1="0" x2="0" y2="1200">
      <stop offset="0%" stop-color="#f3e4cb" />
      <stop offset="42%" stop-color="#e5c289" stop-opacity="0.78" />
      <stop offset="100%" stop-color="#f3e4cb" />
    </linearGradient>
  </defs>
  <rect width="900" height="1200" fill="url(#panelWash)" />
  <rect width="900" height="1200" fill="#ffffff" opacity="0.08" />
  <ellipse cx="236" cy="170" rx="290" ry="190" fill="#e5c289" opacity="0.52" filter="url(#blurHeavy)" />
  <ellipse cx="709" cy="870" rx="250" ry="225" fill="#e3b366" opacity="0.224" filter="url(#blurHeavy)" />
  <ellipse cx="196" cy="1040" rx="250" ry="150" fill="#f9e8be" opacity="0.288" filter="url(#blurSoft)" />
  <ellipse cx="679" cy="224" rx="175" ry="165" fill="#f9e8be" opacity="0.48" filter="url(#blurSoft)" />
  <path d="M144 1085 L419 560 L769 1085" fill="none" stroke="#e3b366" stroke-width="18" stroke-linecap="round" stroke-linejoin="round" opacity="0.256" />
  <path d="M179 980 L389 710 L619 980" fill="none" stroke="#634c2b" stroke-width="14" stroke-linecap="round" stroke-linejoin="round" opacity="0.224" />
  <path d="M60 946 C250 861 470 1036 690 961 C800 923 860 956 920 1006" fill="none" stroke="#edca8e" stroke-width="22" stroke-linecap="round" stroke-linejoin="round" opacity="0.256" />
  <path d="M110 1016 C330 921 540 1086 790 1011" fill="none" stroke="#e3b366" stroke-width="14" stroke-linecap="round" stroke-linejoin="round" opacity="0.192" />
</svg>
